<mxfile host="Electron" agent="Mozilla/5.0 (Windows NT 10.0; Win64; x64) AppleWebKit/537.36 (KHTML, like Gecko) draw.io/28.1.2 Chrome/138.0.7204.243 Electron/37.4.0 Safari/537.36" version="28.1.2">
  <diagram name="PÃ¡gina-1" id="q0C87n9_bOGD03twdf_r">
    <mxGraphModel dx="2754" dy="1110" grid="1" gridSize="10" guides="1" tooltips="1" connect="1" arrows="1" fold="1" page="1" pageScale="1" pageWidth="827" pageHeight="1169" math="0" shadow="0">
      <root>
        <mxCell id="0" />
        <mxCell id="1" parent="0" />
        <mxCell id="2T2hp9bwVAvJsnN-x7U1-28" value="" style="whiteSpace=wrap;html=1;shape=mxgraph.basic.cloud_rect" vertex="1" parent="1">
          <mxGeometry x="-1613" y="510" width="740" height="390" as="geometry" />
        </mxCell>
        <mxCell id="2T2hp9bwVAvJsnN-x7U1-8" value="" style="edgeStyle=orthogonalEdgeStyle;rounded=0;orthogonalLoop=1;jettySize=auto;html=1;" edge="1" parent="1" source="2T2hp9bwVAvJsnN-x7U1-10" target="2T2hp9bwVAvJsnN-x7U1-1">
          <mxGeometry relative="1" as="geometry">
            <Array as="points">
              <mxPoint x="-1550" y="830" />
            </Array>
          </mxGeometry>
        </mxCell>
        <mxCell id="2T2hp9bwVAvJsnN-x7U1-2" value="" style="verticalLabelPosition=bottom;aspect=fixed;html=1;shape=mxgraph.salesforce.web;fillColorStyles=fillColor2,fillColor3,fillColor4;fillColor2=#032d60;fillColor3=#0d9dda;fillColor4=#ffffff;fillColor=none;strokeColor=none;" vertex="1" parent="1">
          <mxGeometry x="-1580" y="970" width="60" height="47.400000000000006" as="geometry" />
        </mxCell>
        <mxCell id="2T2hp9bwVAvJsnN-x7U1-6" value="" style="edgeStyle=orthogonalEdgeStyle;rounded=0;orthogonalLoop=1;jettySize=auto;html=1;" edge="1" parent="1" source="2T2hp9bwVAvJsnN-x7U1-3" target="2T2hp9bwVAvJsnN-x7U1-2">
          <mxGeometry relative="1" as="geometry" />
        </mxCell>
        <mxCell id="2T2hp9bwVAvJsnN-x7U1-3" value="Actor" style="shape=umlActor;verticalLabelPosition=bottom;verticalAlign=top;html=1;outlineConnect=0;" vertex="1" parent="1">
          <mxGeometry x="-1440" y="963.7" width="30" height="60" as="geometry" />
        </mxCell>
        <mxCell id="2T2hp9bwVAvJsnN-x7U1-11" value="" style="edgeStyle=orthogonalEdgeStyle;rounded=0;orthogonalLoop=1;jettySize=auto;html=1;" edge="1" parent="1" source="2T2hp9bwVAvJsnN-x7U1-2" target="2T2hp9bwVAvJsnN-x7U1-10">
          <mxGeometry relative="1" as="geometry">
            <mxPoint x="-1550" y="970" as="sourcePoint" />
            <mxPoint x="-1440" y="757" as="targetPoint" />
            <Array as="points">
              <mxPoint x="-1550" y="830" />
            </Array>
          </mxGeometry>
        </mxCell>
        <mxCell id="2T2hp9bwVAvJsnN-x7U1-10" value="enviar arquivo" style="text;html=1;align=center;verticalAlign=middle;resizable=0;points=[];autosize=1;strokeColor=none;fillColor=none;" vertex="1" parent="1">
          <mxGeometry x="-1600" y="830" width="100" height="30" as="geometry" />
        </mxCell>
        <mxCell id="2T2hp9bwVAvJsnN-x7U1-12" value="AWS" style="ellipse;shape=cloud;whiteSpace=wrap;html=1;" vertex="1" parent="1">
          <mxGeometry x="-1570" y="544" width="120" height="90" as="geometry" />
        </mxCell>
        <mxCell id="2T2hp9bwVAvJsnN-x7U1-14" style="edgeStyle=orthogonalEdgeStyle;rounded=0;orthogonalLoop=1;jettySize=auto;html=1;entryX=1;entryY=0.5;entryDx=0;entryDy=0;entryPerimeter=0;" edge="1" parent="1" source="2T2hp9bwVAvJsnN-x7U1-13" target="2T2hp9bwVAvJsnN-x7U1-1">
          <mxGeometry relative="1" as="geometry" />
        </mxCell>
        <mxCell id="2T2hp9bwVAvJsnN-x7U1-16" value="" style="group" vertex="1" connectable="0" parent="1">
          <mxGeometry x="-1240" y="695.5" width="123" height="159.5" as="geometry" />
        </mxCell>
        <mxCell id="2T2hp9bwVAvJsnN-x7U1-13" value="" style="verticalLabelPosition=bottom;html=1;verticalAlign=top;strokeWidth=1;align=center;outlineConnect=0;dashed=0;outlineConnect=0;shape=mxgraph.aws3d.application_server;fillColor=#ECECEC;strokeColor=#5E5E5E;aspect=fixed;strokeColor2=#292929;" vertex="1" parent="2T2hp9bwVAvJsnN-x7U1-16">
          <mxGeometry width="123" height="124" as="geometry" />
        </mxCell>
        <mxCell id="2T2hp9bwVAvJsnN-x7U1-15" value="EC2" style="text;html=1;align=center;verticalAlign=middle;resizable=0;points=[];autosize=1;strokeColor=none;fillColor=none;" vertex="1" parent="2T2hp9bwVAvJsnN-x7U1-16">
          <mxGeometry x="36.5" y="129.5" width="50" height="30" as="geometry" />
        </mxCell>
        <mxCell id="2T2hp9bwVAvJsnN-x7U1-17" value="" style="group" vertex="1" connectable="0" parent="1">
          <mxGeometry x="-1445" y="720" width="60" height="105" as="geometry" />
        </mxCell>
        <mxCell id="2T2hp9bwVAvJsnN-x7U1-1" value="" style="outlineConnect=0;dashed=0;verticalLabelPosition=bottom;verticalAlign=top;align=center;html=1;shape=mxgraph.aws3.volume;fillColor=#E05243;gradientColor=none;" vertex="1" parent="2T2hp9bwVAvJsnN-x7U1-17">
          <mxGeometry x="5" width="50" height="75" as="geometry" />
        </mxCell>
        <mxCell id="2T2hp9bwVAvJsnN-x7U1-9" value="D-EBS" style="text;html=1;align=center;verticalAlign=middle;resizable=0;points=[];autosize=1;strokeColor=none;fillColor=none;" vertex="1" parent="2T2hp9bwVAvJsnN-x7U1-17">
          <mxGeometry y="75" width="60" height="30" as="geometry" />
        </mxCell>
        <mxCell id="2T2hp9bwVAvJsnN-x7U1-19" style="edgeStyle=orthogonalEdgeStyle;rounded=0;orthogonalLoop=1;jettySize=auto;html=1;entryX=0;entryY=0.5;entryDx=0;entryDy=0;entryPerimeter=0;" edge="1" parent="1" source="2T2hp9bwVAvJsnN-x7U1-13" target="2T2hp9bwVAvJsnN-x7U1-18">
          <mxGeometry relative="1" as="geometry" />
        </mxCell>
        <mxCell id="2T2hp9bwVAvJsnN-x7U1-22" value="" style="group" vertex="1" connectable="0" parent="1">
          <mxGeometry x="-970" y="720" width="60" height="105" as="geometry" />
        </mxCell>
        <mxCell id="2T2hp9bwVAvJsnN-x7U1-18" value="" style="outlineConnect=0;dashed=0;verticalLabelPosition=bottom;verticalAlign=top;align=center;html=1;shape=mxgraph.aws3.volume;fillColor=#E05243;gradientColor=none;" vertex="1" parent="2T2hp9bwVAvJsnN-x7U1-22">
          <mxGeometry width="50" height="75" as="geometry" />
        </mxCell>
        <mxCell id="2T2hp9bwVAvJsnN-x7U1-21" value="E-EBS" style="text;html=1;align=center;verticalAlign=middle;resizable=0;points=[];autosize=1;strokeColor=none;fillColor=none;" vertex="1" parent="2T2hp9bwVAvJsnN-x7U1-22">
          <mxGeometry y="75" width="60" height="30" as="geometry" />
        </mxCell>
        <mxCell id="2T2hp9bwVAvJsnN-x7U1-24" style="edgeStyle=orthogonalEdgeStyle;rounded=0;orthogonalLoop=1;jettySize=auto;html=1;entryX=0;entryY=0.22;entryDx=0;entryDy=0;entryPerimeter=0;" edge="1" parent="1" source="2T2hp9bwVAvJsnN-x7U1-13" target="2T2hp9bwVAvJsnN-x7U1-23">
          <mxGeometry relative="1" as="geometry">
            <Array as="points">
              <mxPoint x="-1178" y="562" />
            </Array>
          </mxGeometry>
        </mxCell>
        <mxCell id="2T2hp9bwVAvJsnN-x7U1-26" value="" style="group" vertex="1" connectable="0" parent="1">
          <mxGeometry x="-1060" y="544" width="72" height="114" as="geometry" />
        </mxCell>
        <mxCell id="2T2hp9bwVAvJsnN-x7U1-23" value="" style="outlineConnect=0;dashed=0;verticalLabelPosition=bottom;verticalAlign=top;align=center;html=1;shape=mxgraph.aws3.rds;fillColor=#2E73B8;gradientColor=none;" vertex="1" parent="2T2hp9bwVAvJsnN-x7U1-26">
          <mxGeometry width="72" height="81" as="geometry" />
        </mxCell>
        <mxCell id="2T2hp9bwVAvJsnN-x7U1-25" value="RDS" style="text;html=1;align=center;verticalAlign=middle;resizable=0;points=[];autosize=1;strokeColor=none;fillColor=none;" vertex="1" parent="2T2hp9bwVAvJsnN-x7U1-26">
          <mxGeometry x="13" y="84" width="50" height="30" as="geometry" />
        </mxCell>
      </root>
    </mxGraphModel>
  </diagram>
</mxfile>
